<svg width="201" height="200" xmlns="http://www.w3.org/2000/svg" xmlns:xlink="http://www.w3.org/1999/xlink" overflow="hidden"><defs><filter id="fx0" x="-10%" y="-10%" width="120%" height="120%" filterUnits="userSpaceOnUse" primitiveUnits="userSpaceOnUse"><feComponentTransfer color-interpolation-filters="sRGB"><feFuncR type="discrete" tableValues="0 0"/><feFuncG type="discrete" tableValues="0 0"/><feFuncB type="discrete" tableValues="0 0"/><feFuncA type="linear" slope="0.270588" intercept="0"/></feComponentTransfer><feGaussianBlur stdDeviation="1.77778 1.77778"/></filter><clipPath id="clip1"><rect x="93" y="-234" width="201" height="200"/></clipPath><clipPath id="clip2"><rect x="3" y="38" width="196" height="126"/></clipPath><clipPath id="clip3"><rect x="0" y="0" width="203" height="202"/></clipPath><clipPath id="clip4"><rect x="7" y="7" width="189" height="188"/></clipPath><clipPath id="clip5"><rect x="7" y="7" width="189" height="188"/></clipPath><clipPath id="clip6"><rect x="7" y="7" width="189" height="188"/></clipPath><clipPath id="clip7"><rect x="101" y="-232" width="185" height="184"/></clipPath><clipPath id="clip8"><rect x="101" y="-232" width="185" height="184"/></clipPath><clipPath id="clip9"><rect x="101" y="-232" width="185" height="184"/></clipPath></defs><g clip-path="url(#clip1)" transform="translate(-93 234)"><g clip-path="url(#clip2)" filter="url(#fx0)" transform="translate(92 -235)"><g clip-path="url(#clip3)"><g clip-path="url(#clip4)"><g clip-path="url(#clip5)"><g clip-path="url(#clip6)"><path d="M148.58 117.3 39.1 117.3 39.1 50.83 148.58 50.83ZM160.31 46.92C160.31 42.6012 156.809 39.1 152.49 39.1L35.19 39.1C30.8712 39.1 27.37 42.6012 27.37 46.92L27.37 129.03 160.31 129.03Z" fill="#1C467D" transform="matrix(1.00543 0 0 1 7.15 7)"/><path d="M105.57 136.85 105.57 138.805C105.637 139.818 104.87 140.693 103.858 140.76 103.777 140.765 103.696 140.765 103.615 140.76L84.065 140.76C83.0523 140.827 82.1771 140.06 82.11 139.048 82.1047 138.967 82.1047 138.886 82.11 138.805L82.11 136.85 3.91 136.85 3.91 140.76C3.91 145.079 7.41113 148.58 11.73 148.58L175.95 148.58C180.269 148.58 183.77 145.079 183.77 140.76L183.77 136.85Z" fill="#1C467D" transform="matrix(1.00543 0 0 1 7.15 7)"/><path d="M93.84 56.695C78.7239 56.695 66.47 68.9489 66.47 84.065 66.47 99.1811 78.7239 111.435 93.84 111.435 108.956 111.435 121.21 99.1811 121.21 84.065 121.21 68.9489 108.956 56.695 93.84 56.695ZM95.795 86.02 104.768 86.02C103.747 92.7597 100.603 98.9983 95.795 103.83ZM95.795 82.11 95.795 64.2804C100.608 69.1167 103.752 75.3629 104.768 82.11ZM91.885 82.11 83.2048 82.11C84.177 75.4784 87.2143 69.322 91.885 64.515ZM91.885 86.02 91.885 103.615C87.2231 98.8018 84.1872 92.6484 83.2048 86.02ZM79.2753 82.11 70.9079 82.11C71.7757 71.8697 79.3343 63.4493 89.4217 61.4848 83.8484 67.0461 80.2795 74.3008 79.2753 82.11ZM79.2753 86.02C80.2803 93.8427 83.8644 101.107 89.4608 106.665 79.3583 104.702 71.7847 96.274 70.9079 86.02ZM108.698 86.02 116.772 86.02C115.916 96.1442 108.516 104.506 98.5711 106.587 104.141 101.049 107.705 93.8115 108.698 86.02ZM108.698 82.11C107.697 74.3389 104.158 67.1157 98.6298 61.563 108.545 63.6642 115.915 72.0107 116.772 82.11Z" fill="#1C467D" transform="matrix(1.00543 0 0 1 7.15 7)"/></g></g></g></g></g><g clip-path="url(#clip7)"><g clip-path="url(#clip8)"><g clip-path="url(#clip9)"><path d="M145.667 115 38.3333 115 38.3333 49.8333 145.667 49.8333ZM157.167 46C157.167 41.7659 153.734 38.3333 149.5 38.3333L34.5 38.3333C30.2659 38.3333 26.8333 41.7659 26.8333 46L26.8333 126.5 157.167 126.5Z" fill="#1C467D" transform="matrix(1.00543 0 0 1 101 -232)"/><path d="M103.5 134.167 103.5 136.083C103.566 137.076 102.814 137.934 101.821 138 101.742 138.005 101.662 138.005 101.583 138L82.4167 138C81.4238 138.066 80.5657 137.314 80.5 136.321 80.4948 136.242 80.4948 136.162 80.5 136.083L80.5 134.167 3.83333 134.167 3.83333 138C3.83333 142.234 7.26581 145.667 11.5 145.667L172.5 145.667C176.734 145.667 180.167 142.234 180.167 138L180.167 134.167Z" fill="#1C467D" transform="matrix(1.00543 0 0 1 101 -232)"/><path d="M92 55.5833C77.1803 55.5833 65.1667 67.597 65.1667 82.4167 65.1667 97.2363 77.1803 109.25 92 109.25 106.82 109.25 118.833 97.2363 118.833 82.4167 118.833 67.597 106.82 55.5833 92 55.5833ZM93.9167 84.3333 102.714 84.3333C101.712 90.9408 98.6307 97.0571 93.9167 101.794ZM93.9167 80.5 93.9167 63.02C98.6355 67.7615 101.717 73.8852 102.714 80.5ZM90.0833 80.5 81.5733 80.5C82.5265 73.9985 85.5042 67.9627 90.0833 63.25ZM90.0833 84.3333 90.0833 101.583C85.5128 96.8645 82.5365 90.8318 81.5733 84.3333ZM77.7208 80.5 69.5175 80.5C70.3683 70.4605 77.7787 62.2052 87.6683 60.2792 82.2043 65.7315 78.7054 72.8439 77.7208 80.5ZM77.7208 84.3333C78.7062 92.0027 82.22 99.1248 87.7067 104.573 77.8023 102.649 70.3771 94.3862 69.5175 84.3333ZM106.567 84.3333 114.482 84.3333C113.643 94.259 106.388 102.457 96.6383 104.497 102.099 99.0679 105.593 91.972 106.567 84.3333ZM106.567 80.5C105.586 72.8812 102.115 65.7997 96.6958 60.3558 106.417 62.4159 113.642 70.5987 114.482 80.5Z" fill="#1C467D" transform="matrix(1.00543 0 0 1 101 -232)"/></g></g></g></g></svg>