<svg width="279" height="212" xmlns="http://www.w3.org/2000/svg" xmlns:xlink="http://www.w3.org/1999/xlink" overflow="hidden"><defs><filter id="fx0" x="-10%" y="-10%" width="120%" height="120%" filterUnits="userSpaceOnUse" primitiveUnits="userSpaceOnUse"><feComponentTransfer color-interpolation-filters="sRGB"><feFuncR type="discrete" tableValues="0 0"/><feFuncG type="discrete" tableValues="0 0"/><feFuncB type="discrete" tableValues="0 0"/><feFuncA type="linear" slope="0.270588" intercept="0"/></feComponentTransfer><feGaussianBlur stdDeviation="1.77778 1.77778"/></filter><filter id="fx1" x="-10%" y="-10%" width="120%" height="120%" filterUnits="userSpaceOnUse" primitiveUnits="userSpaceOnUse"><feComponentTransfer color-interpolation-filters="sRGB"><feFuncR type="discrete" tableValues="0 0"/><feFuncG type="discrete" tableValues="0 0"/><feFuncB type="discrete" tableValues="0 0"/><feFuncA type="linear" slope="0.270588" intercept="0"/></feComponentTransfer><feGaussianBlur stdDeviation="1.77778 1.77778"/></filter><clipPath id="clip2"><rect x="983" y="-237" width="279" height="212"/></clipPath><clipPath id="clip3"><rect x="38" y="7" width="132" height="194"/></clipPath><clipPath id="clip4"><rect x="0" y="0" width="208" height="208"/></clipPath><clipPath id="clip5"><rect x="7" y="7" width="194" height="194"/></clipPath><clipPath id="clip6"><rect x="7" y="7" width="194" height="194"/></clipPath><clipPath id="clip7"><rect x="7" y="7" width="194" height="194"/></clipPath><clipPath id="clip8"><rect x="989" y="-235" width="190" height="190"/></clipPath><clipPath id="clip9"><rect x="989" y="-235" width="190" height="190"/></clipPath><clipPath id="clip10"><rect x="989" y="-235" width="190" height="190"/></clipPath><clipPath id="clip11"><rect x="75" y="15" width="45" height="165"/></clipPath><clipPath id="clip12"><rect x="0" y="0" width="195" height="195"/></clipPath><clipPath id="clip13"><path d="M188.255 98.7013 96.5754 188.037 7.23958 96.3577 98.9191 7.02184Z" fill-rule="evenodd" clip-rule="evenodd"/></clipPath><clipPath id="clip14"><path d="M188.255 98.7013 96.5755 188.037 7.23958 96.3577 98.9191 7.02184Z" fill-rule="evenodd" clip-rule="evenodd"/></clipPath><clipPath id="clip15"><path d="M188.255 98.7013 96.5755 188.037 7.23958 96.3577 98.9191 7.02184Z" fill-rule="evenodd" clip-rule="evenodd"/></clipPath><clipPath id="clip16"><path d="M1252.71-126.096 1162.82-38.5121 1075.24-128.394 1165.12-215.978Z" fill-rule="evenodd" clip-rule="evenodd"/></clipPath><clipPath id="clip17"><path d="M1252.71-126.096 1162.82-38.5121 1075.24-128.394 1165.12-215.978Z" fill-rule="evenodd" clip-rule="evenodd"/></clipPath><clipPath id="clip18"><path d="M1252.71-126.096 1162.82-38.5121 1075.24-128.394 1165.12-215.978Z" fill-rule="evenodd" clip-rule="evenodd"/></clipPath></defs><g clip-path="url(#clip2)" transform="translate(-983 237)"><g clip-path="url(#clip3)" filter="url(#fx0)" transform="translate(982 -238)"><g clip-path="url(#clip4)"><g clip-path="url(#clip5)"><g clip-path="url(#clip6)"><g clip-path="url(#clip7)"><path d="M55.45 59.4875 152.35 59.4875 152.35 124.087 55.45 124.087Z" fill="#1C467D"/><path d="M124.087 39.3 107.938 39.3 107.938 15.075 99.8625 15.075 99.8625 39.3 83.7125 39.3 83.7125 51.4125 124.087 51.4125Z" fill="#1C467D"/><path d="M161.838 192.725 141.853 144.275 152.35 144.275 152.35 132.163 55.45 132.163 55.45 144.275 65.9475 144.275 45.9619 192.725 54.6425 192.725 74.83 144.275 99.8625 144.275 99.8625 172.537 107.938 172.537 107.938 144.275 132.97 144.275 153.158 192.725Z" fill="#1C467D"/></g></g></g></g></g><g clip-path="url(#clip8)"><g clip-path="url(#clip9)"><g clip-path="url(#clip10)"><path d="M1036.5-183.542 1131.5-183.542 1131.5-120.208 1036.5-120.208Z" fill="#1C467D"/><path d="M1103.79-203.333 1087.96-203.333 1087.96-227.083 1080.04-227.083 1080.04-203.333 1064.21-203.333 1064.21-191.458 1103.79-191.458Z" fill="#1C467D"/><path d="M1140.8-52.9167 1121.21-100.417 1131.5-100.417 1131.5-112.292 1036.5-112.292 1036.5-100.417 1046.79-100.417 1027.2-52.9167 1035.71-52.9167 1055.5-100.417 1080.04-100.417 1080.04-72.7083 1087.96-72.7083 1087.96-100.417 1112.5-100.417 1132.29-52.9167Z" fill="#1C467D"/></g></g></g><g clip-path="url(#clip11)" filter="url(#fx1)" transform="translate(1068 -219)"><g clip-path="url(#clip12)"><g clip-path="url(#clip13)"><g clip-path="url(#clip14)"><g clip-path="url(#clip15)"><path d="M-972.628 390.709C-968.668 390.76-966.934 387.954-966.912 386.257L-963.134 312.944-964.869 293.969C-965.319 292.36-967.66 291.104-970.3 291.069L-971.997 291.047C-974.637 291.013-977.103 292.113-977.502 293.805L-979.727 312.729-978.04 386.301C-977.971 388.282-976.492 390.564-972.628 390.709Z" fill="#1C467D"/><path d="M-956.451 270.127C-956.468 264.186-960.864 261.394-963.829 257.396-969.212 250.725-966.296 243.974-965.424 242.194-978.932 243.999-985.154 258.44-985.3 269.753-985.403 277.673-978.982 284.262-971.062 284.365-963.143 284.467-956.553 278.046-956.451 270.127Z" fill="#1C467D"/></g></g></g></g></g><g clip-path="url(#clip16)"><g clip-path="url(#clip17)"><g clip-path="url(#clip18)"><path d="M1161.64-54.5205C1165.53-54.4702 1167.23-57.2216 1167.25-58.8854L1170.95-130.76 1169.25-149.364C1168.81-150.941 1166.51-152.173 1163.93-152.206L1162.26-152.228C1159.67-152.261 1157.26-151.183 1156.87-149.524L1154.68-130.971 1156.34-58.8417C1156.41-56.8995 1157.86-54.662 1161.64-54.5205Z" fill="#1C467D"/><path d="M1177.5-172.738C1177.49-178.562 1173.18-181.299 1170.27-185.22 1164.99-191.759 1167.85-198.378 1168.71-200.124 1155.46-198.354 1149.36-184.196 1149.22-173.104 1149.12-165.34 1155.41-158.88 1163.18-158.779 1170.94-158.679 1177.4-164.974 1177.5-172.738Z" fill="#1C467D"/></g></g></g></g></svg>