<svg width="227" height="208" xmlns="http://www.w3.org/2000/svg" xmlns:xlink="http://www.w3.org/1999/xlink" overflow="hidden"><defs><filter id="fx0" x="-10%" y="-10%" width="120%" height="120%" filterUnits="userSpaceOnUse" primitiveUnits="userSpaceOnUse"><feComponentTransfer color-interpolation-filters="sRGB"><feFuncR type="discrete" tableValues="0 0"/><feFuncG type="discrete" tableValues="0 0"/><feFuncB type="discrete" tableValues="0 0"/><feFuncA type="linear" slope="0.270588" intercept="0"/></feComponentTransfer><feGaussianBlur stdDeviation="1.77778 1.77778"/></filter><filter id="fx1" x="-10%" y="-10%" width="120%" height="120%" filterUnits="userSpaceOnUse" primitiveUnits="userSpaceOnUse"><feComponentTransfer color-interpolation-filters="sRGB"><feFuncR type="discrete" tableValues="0 0"/><feFuncG type="discrete" tableValues="0 0"/><feFuncB type="discrete" tableValues="0 0"/><feFuncA type="linear" slope="0.270588" intercept="0"/></feComponentTransfer><feGaussianBlur stdDeviation="1.77778 1.77778"/></filter><clipPath id="clip2"><rect x="700" y="-239" width="227" height="208"/></clipPath><clipPath id="clip3"><rect x="7" y="27" width="181" height="139"/></clipPath><clipPath id="clip4"><rect x="0" y="0" width="194" height="193"/></clipPath><clipPath id="clip5"><rect x="7" y="7" width="180" height="179"/></clipPath><clipPath id="clip6"><rect x="7" y="7" width="180" height="179"/></clipPath><clipPath id="clip7"><rect x="7" y="7" width="180" height="179"/></clipPath><clipPath id="clip8"><rect x="706" y="-237" width="176" height="175"/></clipPath><clipPath id="clip9"><rect x="706" y="-237" width="176" height="175"/></clipPath><clipPath id="clip10"><rect x="706" y="-237" width="176" height="175"/></clipPath><clipPath id="clip11"><rect x="9" y="9" width="120" height="122"/></clipPath><clipPath id="clip12"><rect x="0" y="0" width="137" height="138"/></clipPath><clipPath id="clip13"><rect x="7" y="7" width="124" height="125"/></clipPath><clipPath id="clip14"><rect x="7" y="7" width="124" height="125"/></clipPath><clipPath id="clip15"><rect x="7" y="7" width="124" height="125"/></clipPath><clipPath id="clip16"><rect x="797" y="-166" width="121" height="122"/></clipPath><clipPath id="clip17"><rect x="797" y="-166" width="121" height="123"/></clipPath><clipPath id="clip18"><rect x="797" y="-166" width="121" height="123"/></clipPath></defs><g clip-path="url(#clip2)" transform="translate(-700 239)"><g clip-path="url(#clip3)" filter="url(#fx0)" transform="translate(699 -240)"><g clip-path="url(#clip4)"><g clip-path="url(#clip5)"><g clip-path="url(#clip6)"><g clip-path="url(#clip7)"><path d="M159.906 40.9062 159.906 132.016 18.5938 132.016 18.5938 40.9062 7.4375 40.9062 7.4375 145.031 72.5156 145.031C72.5156 148.192 74.9328 150.609 78.0938 150.609L100.406 150.609C103.567 150.609 105.984 148.192 105.984 145.031L171.062 145.031 171.062 40.9062 159.906 40.9062Z" fill="#1C467D" transform="matrix(1.00571 0 0 1 7 7)"/><path d="M152.469 29.75 26.0312 29.75 26.0312 124.578 152.469 124.578 152.469 29.75ZM37.1875 40.9062 85.5312 40.9062 85.5312 113.422 37.1875 113.422 37.1875 40.9062ZM141.312 113.422 92.9688 113.422 92.9688 40.9062 141.312 40.9062 141.312 113.422Z" fill="#1C467D" transform="matrix(1.00571 0 0 1 7 7)"/><path d="M104.125 59.5 130.156 59.5 130.156 65.0781 104.125 65.0781Z" fill="#1C467D" transform="matrix(1.00571 0 0 1 7 7)"/><path d="M104.125 70.6562 130.156 70.6562 130.156 76.2344 104.125 76.2344Z" fill="#1C467D" transform="matrix(1.00571 0 0 1 7 7)"/><path d="M104.125 81.8125 122.161 81.8125 122.161 87.3906 104.125 87.3906Z" fill="#1C467D" transform="matrix(1.00571 0 0 1 7 7)"/></g></g></g></g></g><g clip-path="url(#clip8)"><g clip-path="url(#clip9)"><g clip-path="url(#clip10)"><path d="M156.771 40.1042 156.771 129.427 18.2292 129.427 18.2292 40.1042 7.29167 40.1042 7.29167 142.188 71.0938 142.188C71.0938 145.286 73.4635 147.656 76.5625 147.656L98.4375 147.656C101.536 147.656 103.906 145.286 103.906 142.188L167.708 142.188 167.708 40.1042 156.771 40.1042Z" fill="#1C467D" transform="matrix(1.00571 0 0 1 706 -237)"/><path d="M149.479 29.1667 25.5208 29.1667 25.5208 122.135 149.479 122.135 149.479 29.1667ZM36.4583 40.1042 83.8542 40.1042 83.8542 111.198 36.4583 111.198 36.4583 40.1042ZM138.542 111.198 91.1458 111.198 91.1458 40.1042 138.542 40.1042 138.542 111.198Z" fill="#1C467D" transform="matrix(1.00571 0 0 1 706 -237)"/><path d="M102.083 58.3333 127.604 58.3333 127.604 63.8021 102.083 63.8021Z" fill="#1C467D" transform="matrix(1.00571 0 0 1 706 -237)"/><path d="M102.083 69.2708 127.604 69.2708 127.604 74.7396 102.083 74.7396Z" fill="#1C467D" transform="matrix(1.00571 0 0 1 706 -237)"/><path d="M102.083 80.2083 119.766 80.2083 119.766 85.6771 102.083 85.6771Z" fill="#1C467D" transform="matrix(1.00571 0 0 1 706 -237)"/></g></g></g><g clip-path="url(#clip11)" filter="url(#fx1)" transform="translate(790 -169)"><g clip-path="url(#clip12)"><g clip-path="url(#clip13)"><g clip-path="url(#clip14)"><g clip-path="url(#clip15)"><path d="M32.1406 91.4079C34.7119 93.9792 34.7119 97.9646 32.1406 100.536L21.2128 104.136 19.2844 102.207 22.8841 91.2794C25.5839 88.8367 29.5694 88.8367 32.1406 91.4079ZM82.6657 24.2983 18.3844 88.7081 10.285 113.135 34.8404 105.036 99.1217 40.7543" fill="#1C467D" transform="matrix(1 0 0 1.00826 7 7)"/><path d="M111.721 20.8271 102.593 11.6992C100.536 9.64219 97.3218 9.64219 95.2648 11.6992L86.2654 20.6986 102.593 37.026 111.592 28.0266C113.778 26.0982 113.778 22.8841 111.721 20.8271Z" fill="#1C467D" transform="matrix(1 0 0 1.00826 7 7)"/></g></g></g></g></g><g clip-path="url(#clip16)"><g clip-path="url(#clip17)"><g clip-path="url(#clip18)"><path d="M31.5104 89.6156C34.0312 92.1365 34.0312 96.0437 31.5104 98.5646L20.7969 102.094 18.9062 100.203 22.4354 89.4896C25.0823 87.0948 28.9896 87.0948 31.5104 89.6156ZM81.0448 23.8219 18.024 86.9688 10.0833 110.917 34.1573 102.976 97.1781 39.9552" fill="#1C467D" transform="matrix(1 0 0 1.00826 797 -166)"/><path d="M109.53 20.4188 100.581 11.4698C98.5646 9.45312 95.4135 9.45312 93.3969 11.4698L84.574 20.2927 100.581 36.3 109.404 27.4771C111.547 25.5865 111.547 22.4354 109.53 20.4188Z" fill="#1C467D" transform="matrix(1 0 0 1.00826 797 -166)"/></g></g></g></g></svg>