<svg width="201" height="201" xmlns="http://www.w3.org/2000/svg" xmlns:xlink="http://www.w3.org/1999/xlink" overflow="hidden"><defs><filter id="fx0" x="-10%" y="-10%" width="120%" height="120%" filterUnits="userSpaceOnUse" primitiveUnits="userSpaceOnUse"><feComponentTransfer color-interpolation-filters="sRGB"><feFuncR type="discrete" tableValues="0 0"/><feFuncG type="discrete" tableValues="0 0"/><feFuncB type="discrete" tableValues="0 0"/><feFuncA type="linear" slope="0.270588" intercept="0"/></feComponentTransfer><feGaussianBlur stdDeviation="1.77778 1.77778"/></filter><clipPath id="clip1"><rect x="400" y="-231" width="201" height="201"/></clipPath><clipPath id="clip2"><rect x="13" y="11" width="177" height="179"/></clipPath><clipPath id="clip3"><rect x="0" y="0" width="203" height="204"/></clipPath><clipPath id="clip4"><rect x="7" y="7" width="189" height="190"/></clipPath><clipPath id="clip5"><rect x="7" y="7" width="189" height="190"/></clipPath><clipPath id="clip6"><rect x="7" y="7" width="189" height="190"/></clipPath><clipPath id="clip7"><rect x="406" y="-229" width="185" height="186"/></clipPath><clipPath id="clip8"><rect x="406" y="-229" width="185" height="186"/></clipPath><clipPath id="clip9"><rect x="406" y="-229" width="185" height="186"/></clipPath></defs><g clip-path="url(#clip1)" transform="translate(-400 231)"><g clip-path="url(#clip2)" filter="url(#fx0)" transform="translate(399 -232)"><g clip-path="url(#clip3)"><g clip-path="url(#clip4)"><g clip-path="url(#clip5)"><g clip-path="url(#clip6)"><path d="M160.002 38.1331C158.429 28.8947 150.174 21.8184 140.542 21.8184 139.559 21.8184 138.38 22.015 137.397 22.015 132.68 16.1181 125.407 12.3834 117.151 12.3834 105.161 12.3834 95.1363 20.4425 91.9912 31.45 80.9838 33.6122 72.7281 43.2438 72.7281 54.8409 72.7281 68.0106 83.3425 78.625 96.3156 78.625L96.3156 78.625C96.3156 78.625 154.498 78.625 155.284 78.625 166.685 78.625 175.137 69.3866 175.137 57.9859 175.137 48.5509 168.651 40.6884 160.002 38.1331ZM154.105 66.8313 95.9225 66.8313C91.4016 66.4381 87.4703 63.8828 85.5047 59.9516 83.7356 55.8237 84.1288 51.1063 86.8806 47.3716 89.2394 44.2266 92.7775 42.4575 96.5122 42.4575 97.1019 42.4575 97.8881 42.4575 98.4778 42.6541L102.016 43.2438 102.016 39.3125C102.016 32.2363 106.733 26.1428 113.613 24.5703 114.793 24.3738 115.972 24.1772 117.151 24.1772 117.151 24.1772 117.151 24.1772 117.151 24.1772L117.151 24.1772C117.151 24.1772 117.151 24.1772 117.151 24.1772 122.852 24.1772 127.962 27.3222 130.518 32.4328L131.697 34.7916 134.252 33.8088C135.432 33.4156 136.807 33.2191 138.183 33.2191 140.739 33.2191 143.098 34.0053 145.26 35.3813 148.405 37.74 150.37 41.4747 150.37 45.4059L150.37 48.5509 154.302 48.5509C159.412 48.5509 163.54 52.6787 163.54 57.7894 163.343 62.7034 159.216 66.8313 154.105 66.8313Z" fill="#1C467D" transform="matrix(1 0 0 1.00541 7 7)"/><path d="M101.819 86.4875 20.0494 86.4875C16.5112 86.4875 13.7594 89.2394 13.7594 92.7775L13.7594 148.994C13.7594 152.533 16.5112 155.284 20.0494 155.284 20.0494 155.284 20.0494 155.284 20.0494 155.284L51.1063 155.284 51.1063 163.147 37.3469 163.147 37.3469 174.941 84.5219 174.941 84.5219 163.147 70.7625 163.147 70.7625 155.284 101.819 155.284C105.357 155.284 108.109 152.533 108.109 148.994L108.109 148.994 108.109 92.7775C108.109 89.2394 105.357 86.4875 101.819 86.4875ZM96.3156 143.491 25.5531 143.491 25.5531 98.2812 96.3156 98.2812 96.3156 143.491Z" fill="#1C467D" transform="matrix(1 0 0 1.00541 7 7)"/><path d="M137.201 86.4875C139.166 89.0428 140.149 92.3844 140.149 95.5294 140.149 101.426 136.807 106.733 131.697 109.485L131.697 101.426 117.348 115.972 131.697 130.124 131.697 122.065C146.439 118.134 155.088 102.999 150.96 88.2566 150.763 87.6669 150.567 87.0772 150.37 86.4875L137.201 86.4875Z" fill="#1C467D" transform="matrix(1 0 0 1.00541 7 7)"/><path d="M45.0128 78.625C43.4403 76.6594 42.0644 72.7281 42.0644 69.5831 42.0644 63.6863 45.4059 58.3791 50.5166 55.6272L50.5166 63.6863 64.8656 49.1406 50.5166 34.9881 50.5166 43.0472C35.7744 46.9784 27.1256 62.1138 31.2534 76.8559 31.45 77.4456 31.6466 78.0353 31.8431 78.625L45.0128 78.625Z" fill="#1C467D" transform="matrix(1 0 0 1.00541 7 7)"/></g></g></g></g></g><g clip-path="url(#clip7)"><g clip-path="url(#clip8)"><g clip-path="url(#clip9)"><path d="M156.865 37.3854C155.323 28.3281 147.229 21.3906 137.786 21.3906 136.823 21.3906 135.667 21.5833 134.703 21.5833 130.078 15.8021 122.948 12.1406 114.854 12.1406 103.099 12.1406 93.2708 20.0417 90.1875 30.8333 79.3958 32.9531 71.3021 42.3958 71.3021 53.7656 71.3021 66.6771 81.7083 77.0833 94.4271 77.0833L94.4271 77.0833C94.4271 77.0833 151.469 77.0833 152.24 77.0833 163.417 77.0833 171.703 68.026 171.703 56.849 171.703 47.599 165.344 39.8906 156.865 37.3854ZM151.083 65.5208 94.0417 65.5208C89.6094 65.1354 85.7552 62.6302 83.8281 58.776 82.0938 54.7292 82.4792 50.1042 85.1771 46.4427 87.4896 43.3594 90.9583 41.625 94.6198 41.625 95.1979 41.625 95.9688 41.625 96.5469 41.8177L100.016 42.3958 100.016 38.5417C100.016 31.6042 104.641 25.6302 111.385 24.0885 112.542 23.8958 113.698 23.7031 114.854 23.7031 114.854 23.7031 114.854 23.7031 114.854 23.7031L114.854 23.7031C114.854 23.7031 114.854 23.7031 114.854 23.7031 120.443 23.7031 125.453 26.7865 127.958 31.7969L129.115 34.1094 131.62 33.1458C132.776 32.7604 134.125 32.5677 135.474 32.5677 137.979 32.5677 140.292 33.3385 142.411 34.6875 145.495 37 147.422 40.6615 147.422 44.5156L147.422 47.599 151.276 47.599C156.286 47.599 160.333 51.6458 160.333 56.6562 160.141 61.474 156.094 65.5208 151.083 65.5208Z" fill="#1C467D" transform="matrix(1 0 0 1.00541 406 -229)"/><path d="M99.8229 84.7917 19.6562 84.7917C16.1875 84.7917 13.4896 87.4896 13.4896 90.9583L13.4896 146.073C13.4896 149.542 16.1875 152.24 19.6562 152.24 19.6562 152.24 19.6562 152.24 19.6562 152.24L50.1042 152.24 50.1042 159.948 36.6146 159.948 36.6146 171.51 82.8646 171.51 82.8646 159.948 69.375 159.948 69.375 152.24 99.8229 152.24C103.292 152.24 105.99 149.542 105.99 146.073L105.99 146.073 105.99 90.9583C105.99 87.4896 103.292 84.7917 99.8229 84.7917ZM94.4271 140.677 25.0521 140.677 25.0521 96.3542 94.4271 96.3542 94.4271 140.677Z" fill="#1C467D" transform="matrix(1 0 0 1.00541 406 -229)"/><path d="M134.51 84.7917C136.438 87.2969 137.401 90.5729 137.401 93.6562 137.401 99.4375 134.125 104.641 129.115 107.339L129.115 99.4375 115.047 113.698 129.115 127.573 129.115 119.672C143.568 115.818 152.047 100.979 148 86.526 147.807 85.9479 147.615 85.3698 147.422 84.7917L134.51 84.7917Z" fill="#1C467D" transform="matrix(1 0 0 1.00541 406 -229)"/><path d="M44.1302 77.0833C42.5885 75.1562 41.2396 71.3021 41.2396 68.2188 41.2396 62.4375 44.5156 57.2344 49.526 54.5365L49.526 62.4375 63.5938 48.1771 49.526 34.3021 49.526 42.2031C35.0729 46.0573 26.5938 60.8958 30.6406 75.349 30.8333 75.9271 31.026 76.5052 31.2188 77.0833L44.1302 77.0833Z" fill="#1C467D" transform="matrix(1 0 0 1.00541 406 -229)"/></g></g></g></g></svg>